<svg data-v-0dd9719b="" version="1.0" xmlns="http://www.w3.org/2000/svg" xmlns:xlink="http://www.w3.org/1999/xlink" width="100%" height="100%" viewBox="0 0 340.000000 250.000000" preserveAspectRatio="xMidYMid meet" color-interpolation-filters="sRGB" style="margin: auto;"> <rect data-v-0dd9719b="" x="0" y="0" width="100%" height="100%" fill="#fff" fill-opacity="1" class="background"></rect> <rect data-v-0dd9719b="" x="0" y="0" width="100%" height="100%" fill="url(#watermark)" fill-opacity="1" class="watermarklayer"></rect> <g data-v-0dd9719b="" fill="#333" class="icon-text-wrapper icon-svg-group iconsvg" transform="translate(48.29999542236328,94.99699974060059)"><g class="iconsvg-imagesvg" transform="translate(0,0)"><g><rect fill="#333" fill-opacity="0" stroke-width="2" x="0" y="0" width="60" height="60.006000600060005" class="image-rect"></rect> <svg x="0" y="0" width="60" height="60.006000600060005" filtersec="colorsb3523806545" class="image-svg-svg primary" style="overflow: visible;"><svg xmlns="http://www.w3.org/2000/svg" viewBox="0.01964184083044529 -0.03000464104115963 99.9903564453125 100.00001525878906"><path d="M75.74 61.83H62.5a17.53 17.53 0 0 1-26.75-1.37 2.57 2.57 0 0 0 .3-1.17 2.53 2.53 0 1 0-2.53 2.53 2.73 2.73 0 0 0 .5 0A19.68 19.68 0 0 0 63.41 64h9.45a26.79 26.79 0 1 1 0-28h-9.1a19.69 19.69 0 0 0-30.19 2.5 2.53 2.53 0 1 0 2.48 2.5 2.47 2.47 0 0 0-.53-1.53 17.53 17.53 0 0 1 27.29-1.33H98.6a50 50 0 1 0 0 23.66zm-43.45-2.54a1.23 1.23 0 1 1 1.23 1.23 1.24 1.24 0 0 1-1.23-1.23zM34.75 41a1.23 1.23 0 1 1-1.23-1.23A1.23 1.23 0 0 1 34.75 41zM83.6 73.42a3.7 3.7 0 0 1-.95-.14 40 40 0 1 1 0-46.56 3.7 3.7 0 0 1 .95-.14 3.86 3.86 0 1 1-3.27 1.86 37.14 37.14 0 1 0 0 43.12 3.83 3.83 0 1 1 3.27 1.86z" fill="#0080df"></path><path d="M99.87 46.27H58.16a9 9 0 1 0 0 7.46h41.71c.09-1.23.14-2.47.14-3.73s-.01-2.5-.14-3.73zM50 53.73A3.73 3.73 0 1 1 53.73 50 3.73 3.73 0 0 1 50 53.73z" fill="#f6911e"></path><path d="M81.74 30.42a1.87 1.87 0 1 0 1.86-1.87 1.87 1.87 0 0 0-1.86 1.87zM83.6 67.71a1.87 1.87 0 1 0 1.87 1.87 1.87 1.87 0 0 0-1.87-1.87z" fill="#0080df"></path></svg></svg> <!----></g></g> <g transform="translate(67,5.426748275756836)"><g data-gra="path-name" fill-rule="" class="tp-name iconsvg-namesvg" transform="translate(0,0)"><g transform="scale(1)"><g><path d="M1.76-12.71L8.7-27.75 36.3-27.75 43.16-12.71 36.49-12.71 34.84-16.39 33.9-13.84 10.01-13.84 10.01-16.16 8.44-12.71 1.76-12.71ZM6 5.7L6-9.67 39.07-9.67 39.07 2.85Q39.07 4.05 38.25 4.88 37.42 5.7 36.23 5.7L36.23 5.7 6 5.7ZM10.65-17.55L34.27-17.55 31.35-24.04 13.65-24.04 10.65-17.55ZM12 1.99L33.07 1.99 33.07-5.96 12-5.96 12 1.99ZM55.09 5.85L53.74 2.14 56.7 2.14 56.7-4.76 54.11-4.76 54.11-2.55 52.54 5.85 46.69 5.85 48.26-2.55 48.26-27.68 62.55-27.68 62.55 3Q62.55 4.2 61.72 5.02 60.9 5.85 59.7 5.85L59.7 5.85 55.09 5.85ZM54.11-8.47L56.7-8.47 56.7-14.4 54.11-14.4 54.11-8.47ZM54.11-18.11L56.7-18.11 56.7-23.96 54.11-23.96 54.11-18.11ZM64.16 3L64.16-27.68 87.6-27.68 87.6-10.57Q87.6-9.41 86.78-8.57 85.95-7.72 84.79-7.72L84.79-7.72 69.9-7.72 69.9 2.14 88.65 2.14 87.3 5.85 66.97 5.85Q65.81 5.85 64.99 5.02 64.16 4.2 64.16 3L64.16 3ZM69.9-11.44L73.01-11.44 73.01-23.96 69.9-23.96 69.9-11.44ZM78.79-11.44L81.79-11.44 81.79-23.96 78.79-23.96 78.79-11.44ZM102.3 5.85L102.3-28.35 108.15-28.35 108.15 5.85 102.3 5.85ZM92.36 4.69L95.44-11.7 101.29-11.7 98.17 4.69 92.36 4.69ZM92.36-25.84L98.17-25.84 101.29-14.25 95.44-14.25 92.36-25.84ZM109.46-6.67L109.46-10.39 123.22-10.39 123.22-12.6 129.07-12.6 129.07-10.39 133.39-10.39 132.04-6.67 129.07-6.67 129.07 1.46 127.39 5.85 121.58 5.85 123.22 1.46 123.22-6.67 109.46-6.67ZM109.88-13.42L109.88-17.14 114.56-17.14 112.2-21.26 118.01-21.26 120.38-17.14 123.34-17.14 126.45-22.57 110.29-22.57 111.79-28.35 117.94-28.35 117.38-26.25 132.71-26.25 132.71-22.57 127.46-13.42 109.88-13.42ZM111.3-5.1L117.3-5.1 121.31 3.41 115.31 3.41 111.3-5.1ZM154.57 5.85L154.57-5.96 136.84-5.96 136.84-9.67 154.57-9.67 154.57-11.74 141-11.74 141-27.68 174-27.68 174-14.59Q174-13.42 173.18-12.58 172.35-11.74 171.19-11.74L171.19-11.74 160.43-11.74 160.43-9.67 178.16-9.67 176.81-5.96 160.43-5.96 160.43 5.85 154.57 5.85ZM137.78 5.85L144.22-4.46 150.68-4.46 144.22 5.85 137.78 5.85ZM146.81-15.45L154.57-15.45 154.57-17.85 146.81-17.85 146.81-15.45ZM146.81-21.56L154.57-21.56 154.57-23.96 146.81-23.96 146.81-21.56ZM160.43-15.45L168.19-15.45 168.19-17.85 160.43-17.85 160.43-15.45ZM160.43-21.56L168.19-21.56 168.19-23.96 160.43-23.96 160.43-21.56ZM164.4-4.46L170.78-4.46 177.22 5.85 170.89 5.85 164.4-4.46Z" transform="translate(-1.7599999904632568, 28.350000381469727)"></path></g> <!----> <!----> <!----> <!----> <!----> <!----> <!----></g></g> <g data-gra="path-slogan" fill-rule="" class="tp-slogan iconsvg-slogansvg" fill="#333" transform="translate(38.37000274658203,40.20000076293945)"><!----> <!----> <g transform="scale(1, 1)"><g transform="scale(1)"><path d="M2.06-5.06L6.56-5.06L6.56-8.58L7.73-8.58L7.73 0L6.56 0L6.56-3.98L2.06-3.98L2.06 0L0.89 0L0.89-8.58L2.06-8.58L2.06-5.06ZM10.83-1.03L15.98-1.03L15.98 0L9.66 0L9.66-8.58L15.89-8.58L15.89-7.59L10.83-7.59L10.83-4.92L15.52-4.92L15.52-3.89L10.83-3.89L10.83-1.03ZM23.02-3.89L18.80-3.89L18.80 0L17.63 0L17.63-8.58L23.58-8.58L23.58-7.59L18.80-7.59L18.80-4.92L23.02-4.92L23.02-3.89ZM26.06-1.03L31.22-1.03L31.22 0L24.89 0L24.89-8.58L31.13-8.58L31.13-7.59L26.06-7.59L26.06-4.92L30.75-4.92L30.75-3.89L26.06-3.89L26.06-1.03ZM32.91-8.58L34.08-8.58L34.08 0L32.91 0L32.91-8.58ZM38.67-1.92L38.67-2.77L39.75-2.77L39.75-2.16Q39.75-0.75 41.06-0.75L41.06-0.75Q42.42-0.75 42.42-2.25L42.42-2.25L42.42-8.58L43.59-8.58L43.59-2.30Q43.55 0.09 41.11 0.14L41.11 0.14Q38.81 0.09 38.67-1.92L38.67-1.92ZM45.56-8.58L46.73-8.58L46.73 0L45.56 0L45.56-8.58ZM54.38 0L53.53-2.48L50.06-2.48L49.17 0L48 0L51.23-8.58L52.55-8.58L55.64 0L54.38 0ZM51.80-7.31L50.44-3.52L53.11-3.52L51.84-7.31L51.80-7.31ZM58.08-8.58L62.39-1.64L62.39-8.58L63.52-8.58L63.52 0L62.20 0L57.84-6.94L57.80-6.94L57.80 0L56.67 0L56.67-8.58L58.08-8.58ZM71.72-3.61L69.09-3.61L69.09-4.59L72.84-4.59L72.84 0L72.09 0L71.81-1.08Q70.83 0.09 69 0.14L69 0.14Q67.27 0.14 66.33-0.75L66.33-0.75Q64.92-2.06 64.97-4.36L64.97-4.36Q65.30-8.63 69.05-8.81L69.05-8.81Q72.23-8.63 72.70-6L72.70-6L71.58-6Q71.11-7.78 69-7.83L69-7.83Q66.33-7.64 66.19-4.31L66.19-4.31Q66.19-0.75 69.05-0.75L69.05-0.75Q70.08-0.75 70.83-1.31L70.83-1.31Q71.77-2.06 71.72-3.61L71.72-3.61ZM81.05-3.61L78.42-3.61L78.42-4.59L82.17-4.59L82.17 0L81.42 0L81.14-1.08Q80.16 0.09 78.33 0.14L78.33 0.14Q76.59 0.14 75.66-0.75L75.66-0.75Q74.25-2.06 74.30-4.36L74.30-4.36Q74.63-8.63 78.38-8.81L78.38-8.81Q81.56-8.63 82.03-6L82.03-6L80.91-6Q80.44-7.78 78.33-7.83L78.33-7.83Q75.66-7.64 75.52-4.31L75.52-4.31Q75.52-0.75 78.38-0.75L78.38-0.75Q79.41-0.75 80.16-1.31L80.16-1.31Q81.09-2.06 81.05-3.61L81.05-3.61ZM89.63-3.19L89.63-8.58L90.80-8.58L90.80-3.05Q90.66 0.05 87.28 0.14L87.28 0.14Q84.14 0.05 84-2.86L84-2.86L84-8.58L85.17-8.58L85.17-3.19Q85.22-0.84 87.33-0.80L87.33-0.80Q89.63-0.84 89.63-3.19L89.63-3.19ZM99.38-4.27L99.38-4.27Q99.19-7.64 96.38-7.83L96.38-7.83Q93.52-7.69 93.38-4.27L93.38-4.27Q93.52-0.94 96.38-0.80L96.38-0.80Q99.19-0.98 99.38-4.27ZM100.55-4.27L100.55-4.27Q100.27 0 96.38 0.14L96.38 0.14Q92.44 0 92.16-4.27L92.16-4.27Q92.39-8.72 96.38-8.81L96.38-8.81Q100.27-8.67 100.55-4.27Z" transform="translate(-0.890625, 8.8125)"></path></g></g></g></g></g><defs v-gra="od"></defs></svg>